# xmcd
#
# Track frame offsets:
#       150
#       53485
#       76642
#       112392
#       154582
#
# Disc length: 2552 seconds
#
# Revision: 2
# Processed by: cddbd v1.5.2PL0 Copyright (c) Steve Scherf et al.
# Submitted via: FreeDbEdit v0.1
#
DISCID=3009f605
DTITLE=Joe Pass - Live in the Netherlands
DYEAR=1980
DGENRE=Blues
TTITLE0=Blues in the Closet
TTITLE1=The Mooche
TTITLE2=Thriving From a Riff
TTITLE3=Autumn Leaves
TTITLE4=Someday My Prince Will Come
EXTD=
EXTT0=
EXTT1=
EXTT2=
EXTT3=
EXTT4=
PLAYORDER=
